
<svg version="1.0" xmlns="http://www.w3.org/2000/svg"
 width="512.000000pt" height="512.000000pt" 
 preserveAspectRatio="xMidYMid meet">
<metadata>
Created by potrace 1.16, written by Peter Selinger 2001-2019
</metadata>
<symbol id="triangle-ss" viewBox="0 0 512.000000 512.000000">
<g transform="translate(0.000000,512.000000) scale(0.100000,-0.100000)"
fill="#000000" stroke="none">
<path d="M264 4510 c-11 -4 -34 -24 -51 -44 -37 -41 -36 -66 2 -127 14 -21 25
-42 25 -46 1 -5 12 -21 26 -38 31 -36 29 -30 -25 58 -50 82 -54 122 -13 158
l27 24 -22 -26 c-44 -49 -36 -68 153 -376 97 -159 178 -291 181 -295 2 -5 2
-8 0 -8 -3 0 -40 57 -82 126 -43 69 -79 123 -81 121 -3 -3 13 -31 34 -63 21
-33 45 -70 52 -84 7 -14 32 -54 55 -90 24 -36 51 -81 62 -100 10 -19 35 -60
55 -91 21 -31 46 -74 58 -95 11 -22 30 -50 41 -64 l21 -25 -20 35 c-11 19 -57
96 -102 170 -95 156 -97 159 -82 145 22 -22 284 -460 287 -480 1 -12 32 -71
69 -131 37 -60 71 -116 76 -124 5 -8 30 -48 55 -88 25 -40 45 -76 45 -80 1 -4
12 -20 27 -37 l25 -30 -20 35 c-11 19 -57 96 -102 170 -45 74 -84 138 -87 143
-2 4 -2 7 1 7 2 0 64 -98 137 -217 73 -120 139 -228 147 -240 8 -13 12 -23 9
-23 -3 0 -22 27 -42 61 -21 33 -39 58 -41 56 -3 -2 14 -33 36 -68 79 -124 148
-236 167 -270 10 -19 35 -59 55 -90 21 -31 46 -74 58 -95 11 -22 30 -50 41
-64 l21 -25 -20 35 c-11 19 -57 96 -102 170 -45 74 -84 138 -87 143 -2 4 -2 7
1 7 2 0 82 -127 177 -282 95 -156 179 -293 187 -305 8 -13 12 -23 9 -23 -3 0
-22 27 -42 60 -20 33 -39 60 -42 60 -3 0 4 -15 15 -32 11 -18 43 -71 71 -118
64 -107 105 -169 109 -165 2 1 -12 27 -31 56 -53 85 -81 135 -70 124 15 -13
773 -1253 773 -1263 0 -4 -14 16 -31 43 -38 61 -61 85 -29 30 45 -76 63 -97
97 -112 31 -12 38 -12 71 4 33 16 81 90 454 698 229 374 424 694 433 710 56
101 -59 -81 -430 -688 -231 -377 -421 -684 -423 -682 -4 4 1136 1866 1151
1880 14 14 16 17 -138 -235 -76 -124 -139 -228 -142 -232 -2 -5 -2 -8 1 -8 2
0 82 127 177 283 95 155 179 292 187 305 8 12 12 22 9 22 -3 0 -22 -27 -42
-60 -20 -33 -39 -60 -42 -60 -3 0 1 10 9 23 8 12 68 109 132 215 65 105 120
192 123 192 2 0 2 -3 0 -7 -3 -5 -42 -69 -87 -143 -95 -155 -97 -159 -83 -145
6 6 243 389 527 853 405 662 516 850 516 875 0 25 -9 42 -36 68 l-35 34 -2287
2 c-1258 1 -2296 -2 -2308 -7z m4583 -8 c6 -4 -1023 -7 -2287 -7 -1264 0
-2293 3 -2287 7 7 4 1036 8 2287 8 1251 0 2280 -4 2287 -8z m-407 -189 c0 -5
-846 -8 -1880 -8 -1034 0 -1880 3 -1880 8 0 4 846 7 1880 7 1034 0 1880 -3
1880 -7z m-73 -24 c-9 -6 -14 -15 -11 -21 4 -7 2 -8 -4 -4 -16 10 -214 -92
-206 -106 4 -7 3 -8 -4 -4 -16 10 -234 -102 -226 -116 4 -7 3 -8 -4 -4 -16 10
-214 -92 -206 -106 4 -7 3 -8 -5 -4 -16 10 -443 -212 -435 -226 4 -7 2 -8 -4
-4 -16 10 -214 -92 -206 -106 4 -7 3 -8 -4 -4 -16 10 -234 -102 -226 -116 4
-7 3 -8 -4 -4 -16 10 -214 -92 -206 -106 4 -7 3 -8 -4 -4 -6 4 -20 2 -30 -3
-15 -8 -45 3 -146 55 -69 36 -131 62 -137 58 -7 -4 -9 -3 -5 4 8 14 -419 236
-435 226 -7 -4 -9 -3 -5 4 8 14 -419 236 -435 226 -8 -4 -9 -3 -5 4 8 14 -190
116 -206 106 -7 -4 -8 -3 -4 4 8 14 -190 116 -206 106 -7 -4 -8 -3 -4 4 8 14
-190 116 -206 106 -7 -4 -8 -3 -4 4 4 6 -5 18 -21 26 -25 14 165 15 1797 15
1258 0 1819 -3 1807 -10z m-3803 -121 c4 4 7 3 6 -3 -4 -19 0 -38 6 -32 4 3
42 -12 86 -34 44 -22 83 -38 86 -35 3 3 1 6 -4 6 -6 0 -19 7 -30 15 -17 14
-15 14 13 0 18 -8 32 -20 30 -26 -1 -6 61 -43 138 -83 240 -123 500 -259 510
-266 34 -26 217 -110 227 -104 7 4 8 3 4 -4 -4 -7 34 -32 106 -68 62 -31 115
-59 118 -63 7 -8 175 -91 185 -91 5 0 0 7 -11 16 -18 14 -18 15 3 4 13 -6 22
-16 20 -22 -3 -16 144 -88 168 -82 14 4 16 2 7 -4 -9 -6 -6 -12 13 -20 36 -16
43 -15 19 4 -18 15 -18 15 3 4 15 -7 20 -16 16 -27 -5 -13 -1 -15 23 -10 16 3
23 4 15 0 -9 -3 12 -19 55 -42 l69 -36 2 -1040 c2 -572 3 -1047 3 -1055 0 -13
1 -13 10 0 7 12 10 8 10 -15 0 -28 -1 -28 -13 -10 -7 11 -24 38 -36 60 l-23
40 22 -25 22 -25 -14 25 c-47 82 -200 330 -204 330 -3 0 -3 -3 -1 -7 3 -5 42
-69 87 -143 95 -156 97 -159 82 -145 -8 8 -1488 2420 -1510 2460 -3 7 -1 7 6
0 5 -5 303 -489 662 -1075 359 -586 657 -1069 662 -1075 7 -7 9 -7 6 0 -22 40
-1612 2632 -1621 2640 -14 14 -16 17 138 -235 154 -253 152 -249 137 -235 -8
8 -269 431 -330 535 -12 22 -12 23 0 8 8 -10 18 -14 22 -10z m4014 0 c-8 -13
-84 -135 -168 -273 -83 -137 -157 -254 -162 -260 -15 -14 -17 -18 137 235 154
252 152 249 138 235 -9 -8 -1521 -2472 -1541 -2510 -3 -7 -1 -7 5 0 6 6 201
321 433 700 232 380 427 695 432 700 16 15 6 -2 -617 -1018 l-580 -946 -5
1067 c-3 587 -2 1071 2 1076 3 4 6 2 5 -5 -4 -101 6 -2110 11 -2099 4 8 5 482
2 1054 l-5 1038 88 44 c55 28 85 49 81 56 -4 7 -3 8 4 4 16 -10 214 92 206
106 -4 7 -3 8 4 4 16 -10 214 92 206 106 -4 7 -3 8 4 4 16 -10 234 102 226
116 -4 7 -3 8 4 4 16 -10 214 92 206 106 -4 7 -3 8 4 4 16 -10 234 102 226
116 -4 7 -3 8 4 4 16 -10 214 92 206 106 -4 7 -3 8 4 4 16 -10 214 92 206 106
-4 7 -3 8 4 4 6 -4 51 14 100 38 49 25 92 42 96 39 6 -6 10 13 7 30 -1 5 3 6
8 3 5 -3 11 1 15 9 3 8 8 15 12 15 3 0 0 -10 -8 -22z m-2108 -2033 c0 -571 -3
-1041 -5 -1044 -3 -2 -4 464 -3 1036 3 916 1 1043 -12 1052 -12 10 -12 10 3 3
17 -8 18 -61 17 -1047z"/>
<symbol/>
</g>
</svg>
